<?xml version="1.0" standalone="no"?>
<!DOCTYPE svg PUBLIC "-//W3C//DTD SVG 20010904//EN"
 "http://www.w3.org/TR/2001/REC-SVG-20010904/DTD/svg10.dtd">
<svg version="1.0" xmlns="http://www.w3.org/2000/svg"
 width="700.000000pt" height="700.000000pt" viewBox="0 0 700.000000 700.000000"
 preserveAspectRatio="xMidYMid meet">
<metadata>
Created by potrace 1.11, written by Peter Selinger 2001-2013
</metadata>
<g transform="translate(0.000000,700.000000) scale(0.100000,-0.100000)"
fill="#000000" stroke="none">
<path d="M3315 6989 c-27 -4 -75 -10 -105 -14 -30 -4 -58 -9 -62 -12 -4 -2
-41 -13 -82 -23 -416 -109 -817 -451 -997 -850 -11 -25 -27 -58 -34 -75 -24
-53 -72 -218 -85 -290 -7 -38 -16 -89 -20 -112 -8 -47 -6 -476 3 -533 4 -19 9
-64 12 -100 22 -260 102 -519 213 -695 71 -112 176 -213 287 -275 l40 -22 -46
43 c-98 93 -181 222 -221 344 -37 115 -45 181 -53 455 -3 85 -8 250 -11 365
-14 437 -10 501 43 634 87 219 306 425 548 516 184 69 172 68 705 71 549 3
584 0 745 -56 315 -112 562 -383 619 -680 13 -65 13 -200 2 -500 -3 -85 -8
-234 -11 -330 -8 -261 -14 -331 -34 -412 -40 -154 -121 -291 -241 -407 l-45
-44 35 18 c163 83 303 251 390 470 4 11 12 32 18 46 28 69 83 317 97 434 20
170 27 572 12 675 -86 573 -446 1039 -971 1254 -77 32 -208 73 -265 82 -14 3
-53 9 -86 15 -73 13 -331 19 -400 8z"/>
<path d="M3127 6284 c-1 -1 -36 -4 -77 -7 -272 -22 -557 -202 -689 -437 -61
-111 -74 -169 -74 -340 -1 -211 20 -874 29 -920 2 -14 7 -41 10 -60 13 -74 68
-203 118 -274 39 -56 161 -170 218 -204 103 -61 196 -94 312 -109 89 -12 1010
-6 1071 7 252 52 433 192 546 420 54 110 66 180 74 410 3 85 7 218 10 295 17
487 16 531 -5 616 -72 290 -366 537 -701 590 -57 9 -832 21 -842 13z m-148
-819 c108 -36 185 -146 184 -265 -2 -304 -426 -379 -533 -94 -58 155 25 315
190 366 36 11 115 8 159 -7z m1190 -1 c62 -18 133 -78 163 -138 32 -64 33
-169 3 -233 -66 -143 -216 -202 -367 -144 -42 16 -114 87 -136 135 -57 120
-16 271 93 346 74 51 152 62 244 34z"/>
<path d="M2373 3615 c-162 -44 -280 -175 -301 -333 -4 -32 -7 -709 -6 -1507 1
-1327 3 -1454 18 -1495 50 -133 147 -225 281 -265 73 -21 2166 -22 2236 -1
162 49 278 177 298 329 3 29 6 702 6 1497 -1 1390 -2 1447 -20 1504 -36 114
-128 212 -242 257 l-58 24 -1080 2 c-904 1 -1089 -1 -1132 -12z"/>
<path d="M1215 3391 c-96 -25 -191 -103 -216 -177 -10 -31 -13 -234 -13 -952
-1 -503 2 -916 6 -918 6 -4 402 -7 594 -5 l50 1 -1 928 c-2 1033 3 962 -72
1036 -62 60 -133 88 -233 92 -47 2 -98 0 -115 -5z"/>
<path d="M5553 3375 c-85 -31 -146 -84 -175 -151 -9 -22 -12 -257 -13 -956
l-1 -928 71 0 c233 -2 568 1 573 4 4 2 7 417 6 923 -1 1003 2 949 -59 1021
-85 102 -259 139 -402 87z"/>
<path d="M872 1132 c-104 -21 -173 -75 -197 -155 -15 -51 -19 -337 -5 -372 4
-11 20 -32 34 -47 107 -106 344 -82 406 41 7 14 13 50 14 80 l1 56 188 2 187
3 0 -59 c0 -67 23 -111 79 -148 117 -79 315 -44 367 65 14 29 16 63 15 193 -1
86 -3 165 -5 175 -16 80 -79 135 -186 164 -66 18 -810 20 -898 2z"/>
<path d="M5279 1137 c-97 -14 -197 -75 -220 -133 -24 -63 -30 -344 -9 -399 45
-117 268 -154 389 -64 41 30 61 77 61 141 l0 55 188 0 189 0 1 -59 c1 -89 46
-146 136 -173 93 -28 186 -15 260 36 60 41 66 67 63 267 -2 172 -3 180 -27
216 -30 44 -79 78 -146 101 -42 15 -101 17 -440 18 -215 1 -415 -1 -445 -6z"/>
</g>
</svg>
